<?xml version="1.0" encoding="UTF-8" standalone="no"?>
<!-- Created with Inkscape (http://www.inkscape.org/) -->

<svg
   version="1.1"
   id="svg2"
   width="1024"
   height="1024"
   viewBox="0 0 1024 1024"
   xmlns="http://www.w3.org/2000/svg"
   xmlns:svg="http://www.w3.org/2000/svg">
  <defs
     id="defs6" />
  <g
     id="g8"
     style="display:inline">
    <path
       style="fill:#004651;fill-opacity:1;stroke:none;stroke-width:0.352354"
       d="m 147.11181,989.28226 c 42.47631,-12.05404 85.01251,-23.91076 127.55224,-35.73577 12.45572,-3.46364 24.91144,-6.9449 37.34955,-10.47197 5.15494,-1.46226 11.90958,-4.71802 17.26536,-4.65459 3.96398,0.0495 9.39024,3.89703 13.0371,5.46148 9.76374,4.1895 19.64728,8.05835 29.59776,11.77921 28.88249,10.79613 58.93125,18.70296 89.14563,24.74231 119.88137,23.97057 251.85565,17.80799 358.3441,-47.4304 16.69807,-10.22885 32.4483,-22.001 47.21547,-34.85136 64.49492,-56.11594 99.38856,-135.50487 107.52794,-219.61536 2.31145,-23.87904 1.1205,-48.25843 -6.51855,-71.17555 -2.37487,-7.12461 -5.23951,-16.97995 -10.45435,-22.55067 -2.07185,6.11686 -2.65676,13.06176 -4.10493,19.37948 -2.57571,11.21896 -5.98649,22.25469 -9.75668,33.1213 -12.67772,36.51799 -32.56811,71.40459 -57.71211,100.77331 -16.45494,19.2174 -34.66108,36.64484 -54.92146,51.84188 -6.41284,4.80611 -13.04415,9.28454 -19.73183,13.69601 -2.00837,1.32486 -6.60307,3.02321 -7.54033,5.32055 -0.88441,2.17403 -0.21141,5.74338 -0.21141,8.06891 0,7.15632 0.7047,14.3373 0.7047,21.49361 0,27.2546 2.11414,54.48101 2.11414,81.74619 -9.30216,-5.69404 -19.29845,-10.42264 -28.89306,-15.61282 -18.64658,-10.08437 -37.27555,-20.22161 -56.02432,-30.11572 -9.2035,-4.85544 -18.28366,-9.93991 -27.48364,-14.79888 -3.76666,-1.9908 -7.84692,-5.14789 -11.98004,-6.24372 -3.09366,-0.82098 -7.77645,0.68709 -10.92297,1.13812 -7.00129,1.00068 -14.09418,1.69481 -21.14126,2.17754 -21.05317,1.44113 -42.46926,1.10287 -63.42377,-1.47636 -93.87411,-11.56428 -181.67726,-59.84385 -238.72693,-135.91008 -25.90509,-34.53777 -44.84413,-73.29673 -56.39783,-114.86749 -9.65802,-34.75622 -13.85809,-72.60963 -10.42616,-108.5251 4.17187,-43.6426 14.82707,-85.57981 35.03458,-124.7334 13.82991,-26.79655 31.54628,-51.58819 52.08854,-73.64205 88.33873,-94.83262 228.54037,-128.33446 351.26536,-90.19211 96.97135,30.13686 177.90008,102.47165 217.25452,196.25074 8.41774,20.06657 15.08781,41.31354 19.0835,62.71906 1.52923,8.18519 2.92103,16.39504 3.91114,24.66479 0.5391,4.47843 0.32769,9.57699 2.1705,13.74182 1.88862,-4.49604 1.43408,-11.66998 1.79348,-16.56065 0.7928,-10.81023 2.12118,-21.63102 3.19938,-32.41659 3.68915,-36.87387 7.23383,-73.76536 10.92298,-110.63923 1.31429,-13.15339 2.6039,-26.30677 3.8759,-39.46368 l 1.05706,-10.57063 c 0.17266,-1.72653 0.82452,-3.9675 0.16209,-5.63767 -3.45308,-8.72076 -11.09212,-17.32173 -16.42323,-25.01715 -13.32956,-19.24911 -27.82189,-37.74419 -43.29025,-55.31961 -28.3927,-32.25451 -59.92136,-62.7261 -94.83967,-87.94057 C 783.10055,88.914981 732.71741,64.493307 679.51897,49.701476 599.60855,27.489064 514.13104,24.515194 433.22347,43.087786 357.8267,60.395427 288.01475,96.571631 226.74387,143.322 c -22.05384,16.82491 -43.59326,34.79851 -63.06788,54.57263 -37.4694,38.05425 -70.21719,81.21413 -93.102599,129.66635 -52.536019,111.22415 -57.007394,245.679 -3.002058,357.28721 19.277301,39.8407 44.174647,77.02816 72.521537,110.99159 9.22116,11.0463 19.04832,21.54293 29.21726,31.71188 2.88226,2.88226 5.9125,5.59891 8.80885,8.4565 1.07117,1.06059 2.82589,2.32554 3.1571,3.8759 0.7188,3.3826 -1.84986,9.33034 -2.67437,12.68475 -2.41363,9.83421 -4.53127,19.74593 -6.86739,29.59775 -5.39101,22.75504 -10.38035,45.6017 -15.77137,68.35674 -3.01263,12.70236 -7.18098,25.81699 -8.85114,38.75896 z"
       id="path224" />
  </g>
</svg>
